<svg xmlns="http://www.w3.org/2000/svg" width="2461" height="2461" viewBox="0 0 2461 2461"><defs><linearGradient id="a" x1="152.459" x2="424.323" y1="304.133" y2="405.801" gradientUnits="userSpaceOnUse"><stop offset="0" stop-color="#10768b"/><stop offset="1" stop-color="#4bb09e"/></linearGradient></defs><path fill="url(#a)" d="M307.725 36.824c2.528-.3 8.889 6.056 10.578 7.82 59.588 62.248 95.861 141.929 117.339 224.456a617 617 0 0 1 14.46 71.617c-3.877 1.912-9.638 3.958-13.764 5.719a277 277 0 0 0-21.899 10.73c-88.687 48.838-142.944 144.381-170.44 238.941-5.524 21.195-10.787 42.051-14.336 63.66-4.4-7.313-8.571-19.037-11.588-27.28a1094 1094 0 0 1-13.216-37.9c-29.45-88.437-46.929-184.24-38.862-277.639 1.594-18.457 5.213-39.595 8.669-57.978a386.44 386.44 0 0 1 88.485-181c12.764-14.58 28.607-30.23 44.574-41.146" transform="translate(-.001)scale(3.41806)"/><defs><linearGradient id="b" x1="314.176" x2="551.421" y1="444.938" y2="526.037" gradientUnits="userSpaceOnUse"><stop offset="0" stop-color="#3ba097"/><stop offset="1" stop-color="#67d0a5"/></linearGradient></defs><path fill="url(#b)" d="M607.725 310.881c1.475-.162 2.157-.474 3.245.593 1.439 5.035.558 25.83-.24 31.464-7.369 52.022-34.428 100.546-62.13 144.387-4.711 7.455-15.274 24.535-21.664 29.514-4.353.794-9.259.729-13.702.907-8.263.332-16.664.228-24.9.91a392.3 392.3 0 0 0-105.313 23.961 272.97 272.97 0 0 0-115.348 85.74c-6.459 8.28-13.856 18.309-18.084 27.872l-2.357 4.389c8.93-66.767 40.713-140.447 80.7-194.034 45.404-60.849 110.68-106.313 181.836-131.884a500 500 0 0 1 97.957-23.819" transform="translate(-.001)scale(3.41806)"/><defs><linearGradient id="c" x1="285.523" x2="613.892" y1="566.582" y2="656.305" gradientUnits="userSpaceOnUse"><stop offset="0" stop-color="#44a998"/><stop offset="1" stop-color="#6ed9a7"/></linearGradient></defs><path fill="url(#c)" d="M505.406 538.078c45.523-1.181 93.181 6.93 136.413 21.178-1.445 2.762-6.224 8.906-8.258 11.499a398 398 0 0 1-21.155 24.85c-46.939 50.047-105.39 79.09-173.374 88.428-14.706 2.02-29.621 2.698-44.455 3.18-43.472.64-95.794-8.58-136.431-24.302 7.463-12.203 21.097-26.953 31.045-37.144a295.6 295.6 0 0 1 174.17-85.465c15.554-1.945 26.506-2.047 42.045-2.224" transform="translate(-.001)scale(3.41806)"/></svg>